<svg xmlns="http://www.w3.org/2000/svg" viewBox="0 0 100 100">
  <!-- Definitions for gradients and filters -->
  <defs>
    <!-- Main bulb gradient -->
    <radialGradient id="bulbGradient" cx="50%" cy="40%" r="60%" fx="40%" fy="30%">
      <stop offset="0%" stop-color="#E0B0FF" />
      <stop offset="60%" stop-color="#9370DB" />
      <stop offset="100%" stop-color="#663399" />
    </radialGradient>
    
    <!-- Glass shine effect -->
    <radialGradient id="shineGradient" cx="35%" cy="25%" r="50%" fx="25%" fy="15%">
      <stop offset="0%" stop-color="#FFFFFF" stop-opacity="0.8" />
      <stop offset="40%" stop-color="#FFFFFF" stop-opacity="0.2" />
      <stop offset="100%" stop-color="#FFFFFF" stop-opacity="0" />
    </radialGradient>
    
    <!-- Inner glow effect -->
    <filter id="innerGlow" x="-50%" y="-50%" width="200%" height="200%">
      <feGaussianBlur stdDeviation="1.5" result="blur" />
      <feComposite in="SourceGraphic" in2="blur" operator="over" />
    </filter>
  </defs>
  
  <!-- Circular background -->
  <circle cx="50" cy="50" r="48" fill="#F8F8FF" />
  
  <!-- Bulb base (metal part) -->
  <path d="M40 78 H60 V85 C60 87 58 89 50 89 C42 89 40 87 40 85 Z" fill="#A9A9A9" />
  
  <!-- Screw base of the bulb -->
  <path d="M44 85 H56 V86 H54 V87 H56 V88 H44 V87 H46 V86 H44 Z" fill="#808080" />
  
  <!-- Connection between glass bulb and metal base -->
  <path d="M42 76 C42 78 45 78 50 78 C55 78 58 78 58 76 L56 70 H44 Z" fill="#9370DB" />
  
  <!-- Main bulb (glass part) -->
  <path d="M50 20 C35 20 32 35 32 45 C32 55 38 65 41 70 C42 72 43 73 44 74 L56 74 C57 73 58 72 59 70 C62 65 68 55 68 45 C68 35 65 20 50 20 Z" fill="url(#bulbGradient)" />
  
  <!-- Glass shine overlay -->
  <path d="M50 20 C35 20 32 35 32 45 C32 55 38 65 41 70 C42 72 43 73 44 74 L56 74 C57 73 58 72 59 70 C62 65 68 55 68 45 C68 35 65 20 50 20 Z" fill="url(#shineGradient)" />
  
  <!-- Glow elements inside the bulb -->
  <path d="M50 30 C45 30 42 40 42 45 C42 50 45 60 50 60 C55 60 58 50 58 45 C58 40 55 30 50 30 Z" fill="#DDA0DD" filter="url(#innerGlow)" opacity="0.6" />
  
  <!-- Filament -->
  <path d="M45 55 C48 50 52 60 55 55" stroke="#FFD700" stroke-width="1" fill="none" />
  
  <!-- Small highlight at the top of the bulb -->
  <circle cx="50" cy="28" r="3" fill="#FFFFFF" opacity="0.5" />
</svg>
