<svg xmlns="http://www.w3.org/2000/svg" viewBox="0 0 100 100">
  <!-- Background and gradients -->
  <defs>
    <radialGradient id="coreGradient" cx="50%" cy="50%" r="50%" fx="50%" fy="50%">
      <stop offset="0%" stop-color="#FFFFFF" />
      <stop offset="20%" stop-color="#FFD700" />
      <stop offset="100%" stop-color="#FF8C00" />
    </radialGradient>
    
    <radialGradient id="field1" cx="40%" cy="40%" r="60%" fx="40%" fy="40%">
      <stop offset="0%" stop-color="#FF00FF" stop-opacity="0.9" />
      <stop offset="100%" stop-color="#8A2BE2" stop-opacity="0" />
    </radialGradient>
    
    <radialGradient id="field2" cx="60%" cy="60%" r="60%" fx="60%" fy="60%">
      <stop offset="0%" stop-color="#00FFFF" stop-opacity="0.9" />
      <stop offset="100%" stop-color="#1E90FF" stop-opacity="0" />
    </radialGradient>
    
    <radialGradient id="field3" cx="60%" cy="40%" r="60%" fx="60%" fy="40%">
      <stop offset="0%" stop-color="#00FF00" stop-opacity="0.9" />
      <stop offset="100%" stop-color="#32CD32" stop-opacity="0" />
    </radialGradient>
    
    <filter id="glow" x="-50%" y="-50%" width="200%" height="200%">
      <feGaussianBlur stdDeviation="3" result="blur" />
      <feComposite in="SourceGraphic" in2="blur" operator="over" />
    </filter>
  </defs>
  
  <!-- Dark quantum background -->
  <circle cx="50" cy="50" r="48" fill="#0F0F2D" />
  
  <!-- Color fields representing quark fields -->
  <circle cx="50" cy="50" r="40" fill="url(#field1)" opacity="0.7" />
  <circle cx="50" cy="50" r="40" fill="url(#field2)" opacity="0.7" />
  <circle cx="50" cy="50" r="40" fill="url(#field3)" opacity="0.7" />
  
  <!-- Orbital paths -->
  <circle cx="50" cy="50" r="30" fill="none" stroke="#FFFFFF" stroke-width="0.3" opacity="0.5" />
  <circle cx="50" cy="50" r="20" fill="none" stroke="#FFFFFF" stroke-width="0.3" opacity="0.5" />
  
  <!-- Core particle representing quark core -->
  <circle cx="50" cy="50" r="10" fill="url(#coreGradient)" filter="url(#glow)" />
  
  <!-- Orbiting particles (representing quarks) -->
  <g>
    <circle cx="50" cy="20" r="5" fill="#FF3399" filter="url(#glow)" />
    <circle cx="76" cy="63" r="5" fill="#33CCFF" filter="url(#glow)" />
    <circle cx="24" cy="63" r="5" fill="#66FF33" filter="url(#glow)" />
  </g>
  
  <!-- Energy connections between quarks -->
  <line x1="50" y1="20" x2="76" y2="63" stroke="#FFFFFF" stroke-width="0.8" opacity="0.6" />
  <line x1="76" y1="63" x2="24" y2="63" stroke="#FFFFFF" stroke-width="0.8" opacity="0.6" />
  <line x1="24" y1="63" x2="50" y2="20" stroke="#FFFFFF" stroke-width="0.8" opacity="0.6" />
  
  <!-- Energy sparkles -->
  <g fill="#FFFFFF" opacity="0.8">
    <circle cx="55" cy="25" r="0.6" />
    <circle cx="70" cy="58" r="0.6" />
    <circle cx="30" cy="58" r="0.6" />
    <circle cx="60" cy="40" r="0.4" />
    <circle cx="40" cy="40" r="0.4" />
    <circle cx="50" cy="55" r="0.4" />
  </g>
</svg>
